<svg width="53.126" height="71.095" viewBox="0 0 53.126 71.095" xmlns="http://www.w3.org/2000/svg"><g id="svgGroup" stroke-linecap="round" fill-rule="evenodd" font-size="9pt" stroke="#000000" stroke-width="0.25mm" fill="#000000" style="stroke:#000000;stroke-width:0.25mm;fill:#000000"><path d="M 27.051 44.679 L 12.354 44.679 L 12.354 71.095 L 0 71.095 L 0 0.001 L 27.197 0.001 A 37.052 37.052 0 0 1 35.047 0.785 Q 40.168 1.894 44.045 4.577 A 22.096 22.096 0 0 1 46.118 6.202 A 20.436 20.436 0 0 1 53.063 20.73 A 28.167 28.167 0 0 1 53.125 22.608 A 25.509 25.509 0 0 1 52.239 29.52 A 18.538 18.538 0 0 1 46.265 38.868 A 22.749 22.749 0 0 1 38.031 43.226 Q 34.729 44.225 30.777 44.537 A 47.349 47.349 0 0 1 27.051 44.679 Z M 12.354 9.962 L 12.354 34.767 L 27.197 34.767 A 22.471 22.471 0 0 0 31.012 34.464 Q 34.872 33.798 37.256 31.666 A 10.007 10.007 0 0 0 40.294 26.485 Q 40.696 24.873 40.721 22.962 A 19.499 19.499 0 0 0 40.723 22.706 A 15.318 15.318 0 0 0 40.228 18.711 A 11.243 11.243 0 0 0 37.207 13.502 Q 33.774 10.14 27.826 9.968 A 22.037 22.037 0 0 0 27.539 9.962 L 12.354 9.962 Z" vector-effect="non-scaling-stroke"/></g></svg>