<svg width="74.719" height="17.774" viewBox="0 0 74.719 17.774" xmlns="http://www.w3.org/2000/svg"><g id="svgGroup" stroke-linecap="round" fill-rule="evenodd" font-size="9pt" stroke="#000000" stroke-width="0.25mm" fill="#000000" style="stroke:#000000;stroke-width:0.25mm;fill:#000000"><path d="M 74.719 0 L 74.719 17.774 L 71.643 17.774 L 71.643 9.876 L 63.696 9.876 L 63.696 17.774 L 60.608 17.774 L 60.608 0 L 63.696 0 L 63.696 7.398 L 71.643 7.398 L 71.643 0 L 74.719 0 Z M 40.54 17.774 L 36.975 10.926 L 33.533 10.926 L 33.533 17.774 L 30.444 17.774 L 30.444 0 L 36.694 0 A 11.03 11.03 0 0 1 38.521 0.142 Q 39.497 0.306 40.28 0.661 A 5.178 5.178 0 0 1 41.443 1.38 Q 43.115 2.759 43.115 5.371 A 6.106 6.106 0 0 1 42.968 6.748 A 4.453 4.453 0 0 1 42.255 8.356 A 5.214 5.214 0 0 1 40.583 9.847 A 6.588 6.588 0 0 1 39.856 10.205 L 43.848 17.615 L 43.848 17.774 L 40.54 17.774 Z M 58.276 0 L 58.276 2.49 L 52.734 2.49 L 52.734 17.774 L 49.67 17.774 L 49.67 2.49 L 44.177 2.49 L 44.177 0 L 58.276 0 Z M 25.208 17.774 L 23.755 13.635 L 16.87 13.635 L 15.43 17.774 L 12.219 17.774 L 18.933 0 L 21.704 0 L 28.43 17.774 L 25.208 17.774 Z M 6.763 11.17 L 3.088 11.17 L 3.088 17.774 L 0 17.774 L 0 0 L 6.799 0 Q 9.778 0 11.53 1.551 A 5.109 5.109 0 0 1 13.266 5.183 A 7.042 7.042 0 0 1 13.281 5.652 A 6.377 6.377 0 0 1 13.06 7.38 A 4.635 4.635 0 0 1 11.566 9.717 A 5.687 5.687 0 0 1 9.508 10.807 Q 8.307 11.17 6.763 11.17 Z M 3.088 2.49 L 3.088 8.692 L 6.799 8.692 A 5.618 5.618 0 0 0 7.753 8.616 Q 8.273 8.526 8.686 8.33 A 2.625 2.625 0 0 0 9.314 7.916 A 2.502 2.502 0 0 0 10.074 6.621 Q 10.181 6.191 10.181 5.677 Q 10.181 4.236 9.302 3.375 A 2.974 2.974 0 0 0 7.946 2.626 Q 7.492 2.508 6.957 2.492 A 5.506 5.506 0 0 0 6.885 2.49 L 3.088 2.49 Z M 33.533 2.49 L 33.533 8.448 L 36.707 8.448 Q 37.911 8.448 38.71 7.979 A 2.706 2.706 0 0 0 39.148 7.66 A 2.588 2.588 0 0 0 39.985 6.076 A 3.722 3.722 0 0 0 40.027 5.506 A 4.025 4.025 0 0 0 39.933 4.61 Q 39.751 3.812 39.215 3.296 A 2.61 2.61 0 0 0 38.246 2.718 Q 37.849 2.581 37.364 2.526 A 5.895 5.895 0 0 0 36.792 2.49 L 33.533 2.49 Z M 20.313 3.772 L 17.737 11.145 L 22.888 11.145 L 20.313 3.772 Z" vector-effect="non-scaling-stroke"/></g></svg>